<?xml version="1.0" encoding="iso-8859-1"?>
<!-- Generator: Adobe Illustrator 22.0.0, SVG Export Plug-In . SVG Version: 6.00 Build 0)  -->
<svg version="1.1" xmlns="http://www.w3.org/2000/svg" xmlns:xlink="http://www.w3.org/1999/xlink" x="0px" y="0px"
	 viewBox="0 0 360 360" style="enable-background:new 0 0 360 360;" xml:space="preserve">
<g id="Martin__Tax__x26__Advisory_1_" style="enable-background:new    ;">
</g>
<g id="A_copy_2_1_" style="enable-background:new    ;">
	<g id="A_copy_2">
		<g>
			<path style="fill-rule:evenodd;clip-rule:evenodd;" d="M189.405,201.421l0.063-0.119v-0.007l1.304-2.597l-0.015-55.84
				l26.74-0.163l11.081-21.49H88.433l31.276,21.652h41.599l-32.072,24.575l-38.8-29.731l-21.555-16.498v120.299h21.555v-76.648
				l21.211,16.154l17.589,13.577l17.589-13.577l21.211-16.154v76.648l1.164-2.183v2.355L189.405,201.421z M291.85,220.021
				l-50.526-98.817l-50.526,98.817l-11.036,21.482h24.142l11.036-21.482l26.384-51.557l26.384,51.557l11.036,21.482h24.142
				L291.85,220.021z"/>
		</g>
	</g>
</g>
</svg>
