<?xml version="1.0" encoding="iso-8859-1"?>
<!-- Generator: Adobe Illustrator 22.0.0, SVG Export Plug-In . SVG Version: 6.00 Build 0)  -->
<svg version="1.1" xmlns="http://www.w3.org/2000/svg" xmlns:xlink="http://www.w3.org/1999/xlink" x="0px" y="0px"
	 viewBox="0 0 360 150.96" style="enable-background:new 0 0 360 150.96;" xml:space="preserve">
<g id="Background_xA0_Image_1_">
	
		<image style="overflow:visible;" width="1500" height="629" id="Background_xA0_Image" xlink:href="4C743193.jpg"  transform="matrix(0.24 0 0 0.24 0 0)">
	</image>
</g>
<g id="Martin__Tax__x26__Advisory_1_" style="enable-background:new    ;">
	<g id="Martin__Tax__x26__Advisory">
		<g>
			<path style="fill-rule:evenodd;clip-rule:evenodd;fill:#2B61BA;" d="M172.062,65.471l7.6-11.535v17.631h5.903V44.561h-6.404
				l-7.098,11.419l-7.099-11.419h-6.404v27.006h5.825V54.052l7.523,11.419H172.062z M205.161,44.368l-11.574,27.198h6.057
				l2.469-6.057h11.419l2.469,6.057h6.211l-11.574-27.198H205.161z M204.235,60.263l3.588-8.758l3.588,8.758H204.235z
				 M252.765,53.55v-0.077c0-2.546-0.81-4.668-2.315-6.173c-1.775-1.775-4.437-2.739-7.87-2.739h-12.345v27.006h5.941v-8.642h4.668
				l5.787,8.642h6.944l-6.597-9.645C250.412,60.649,252.765,57.91,252.765,53.55z M246.747,53.859c0,2.276-1.659,3.819-4.552,3.819
				h-6.018v-7.754h5.903c2.893,0,4.668,1.312,4.668,3.858V53.859z M282.431,44.561h-22.376v5.478h8.217v21.527h5.941V50.039h8.217
				V44.561z M297.051,44.561h-5.941v27.006h5.941V44.561z M325.791,44.561v16.628l-12.654-16.628h-5.478v27.006h5.864V54.399
				l13.078,17.168h5.054V44.561H325.791z M164.415,92.457h3.402v8.913h2.46v-8.913h3.402v-2.268h-9.264V92.457z M179.556,90.109
				l-4.792,11.261h2.508l1.022-2.508h4.728l1.022,2.508h2.572l-4.792-11.261H179.556z M179.172,96.69l1.486-3.626l1.485,3.626
				H179.172z M199.312,90.189h-2.795l-2.38,3.626l-2.332-3.626h-2.875l3.738,5.495l-3.897,5.687h2.795l2.524-3.834l2.508,3.834
				h2.875l-3.897-5.718L199.312,90.189z M218.445,96.323l-1.805-0.99c-0.351,0.687-0.719,1.342-1.086,1.917l-1.486-1.485
				c1.39-0.543,2.348-1.422,2.348-2.923v-0.032c0-1.565-1.246-2.811-3.147-2.811c-2.156,0-3.386,1.406-3.386,2.939v0.032
				c0,0.767,0.24,1.47,0.783,2.236c-1.406,0.639-2.172,1.645-2.172,3.067v0.032c0,1.981,1.613,3.227,3.754,3.227
				c1.294,0,2.364-0.495,3.274-1.246l1.294,1.31l1.805-1.262l-1.645-1.645C217.535,97.936,218.014,97.105,218.445,96.323z
				 M212.136,93.048c0-0.671,0.431-1.134,1.086-1.134c0.623,0,1.054,0.399,1.054,1.038v0.032c0,0.703-0.511,1.118-1.485,1.485
				c-0.463-0.527-0.655-0.894-0.655-1.39V93.048z M212.535,99.517c-0.91,0-1.565-0.527-1.565-1.31v-0.032
				c0-0.543,0.304-1.086,1.038-1.47l2.14,2.172C213.637,99.278,213.094,99.517,212.535,99.517z M232.227,90.109l-4.792,11.261h2.508
				l1.022-2.508h4.728l1.022,2.508h2.572l-4.792-11.261H232.227z M231.843,96.69l1.486-3.626l1.485,3.626H231.843z M246.968,90.189
				h-4.361v11.181h4.361c3.514,0,5.942-2.444,5.942-5.591v-0.032C252.91,92.601,250.482,90.189,246.968,90.189z M250.338,95.812
				c0,1.981-1.358,3.338-3.37,3.338h-1.901v-6.741h1.901c2.013,0,3.37,1.39,3.37,3.37V95.812z M260.655,98.064l-2.923-7.875h-2.715
				l4.52,11.261h2.172l4.52-11.261h-2.651L260.655,98.064z M269.661,101.37h2.46V90.189h-2.46V101.37z M281.049,94.677
				c-1.933-0.495-2.412-0.735-2.412-1.469v-0.032c0-0.543,0.495-0.974,1.438-0.974c0.942,0,1.917,0.415,2.907,1.102l1.278-1.853
				c-1.134-0.91-2.524-1.422-4.153-1.422c-2.284,0-3.913,1.342-3.913,3.37v0.032c0,2.22,1.454,2.843,3.706,3.418
				c1.869,0.479,2.252,0.799,2.252,1.422v0.032c0,0.655-0.607,1.054-1.613,1.054c-1.278,0-2.332-0.527-3.338-1.358l-1.454,1.741
				c1.342,1.198,3.051,1.789,4.744,1.789c2.412,0,4.105-1.246,4.105-3.466v-0.032C284.595,96.083,283.317,95.269,281.049,94.677z
				 M293.794,89.997c-3.45,0-5.958,2.604-5.958,5.782v0.032c0,3.179,2.476,5.75,5.926,5.75s5.958-2.604,5.958-5.782v-0.032
				C299.72,92.569,297.244,89.997,293.794,89.997z M297.148,95.812c0,1.917-1.374,3.482-3.354,3.482
				c-1.981,0-3.386-1.597-3.386-3.514v-0.032c0-1.917,1.374-3.482,3.354-3.482s3.386,1.597,3.386,3.514V95.812z M312.832,93.911
				v-0.032c0-1.054-0.335-1.933-0.958-2.556c-0.735-0.735-1.837-1.134-3.259-1.134h-5.111v11.181h2.46v-3.578h1.933l2.396,3.578
				h2.875l-2.731-3.993C311.857,96.85,312.832,95.716,312.832,93.911z M310.34,94.039c0,0.942-0.687,1.581-1.885,1.581h-2.492
				v-3.211h2.444c1.198,0,1.933,0.543,1.933,1.597V94.039z M320.641,94.677l-2.668-4.488h-2.875l4.297,6.773v4.409h2.46v-4.457
				l4.297-6.725h-2.795L320.641,94.677z"/>
		</g>
	</g>
</g>
<g id="A_copy_2_1_" style="enable-background:new    ;">
	<g id="A_copy_2">
		<g>
			<path style="fill-rule:evenodd;clip-rule:evenodd;" d="M88.374,82.717l0.03-0.056v-0.003l0.638-1.273l-0.007-27.367l13.093-0.08
				l5.425-10.532H38.936L54.25,54.017h20.368L58.914,66.061L39.917,51.49l-10.554-8.086v58.959h10.554V64.798l10.385,7.917
				l8.612,6.654l8.612-6.654l10.385-7.917v37.565l0.57-1.07v1.154L88.374,82.717z M138.532,91.835l-24.738-48.43l-24.738,48.43
				l-5.404,10.528h11.82l5.404-10.528l12.918-25.268l12.918,25.268l5.404,10.528h11.82L138.532,91.835z"/>
		</g>
	</g>
</g>
</svg>
