<?xml version="1.0" encoding="iso-8859-1"?>
<!-- Generator: Adobe Illustrator 22.0.0, SVG Export Plug-In . SVG Version: 6.00 Build 0)  -->
<svg version="1.1" xmlns="http://www.w3.org/2000/svg" xmlns:xlink="http://www.w3.org/1999/xlink" x="0px" y="0px"
	 viewBox="0 0 360 360" style="enable-background:new 0 0 360 360;" xml:space="preserve">
<g id="Martin__Tax__x26__Advisory_1_" style="enable-background:new    ;">
	<g id="Martin__Tax__x26__Advisory">
		<g>
			<path style="fill-rule:evenodd;clip-rule:evenodd;fill:#2B61BA;" d="M87.428,241.111l10.168-15.433v23.588h7.897v-36.13h-8.568
				l-9.497,15.278l-9.497-15.278h-8.568v36.13h7.794v-23.433l10.065,15.278H87.428z M131.713,212.877l-15.485,36.388h8.104
				l3.303-8.103h15.279l3.303,8.103h8.31l-15.485-36.388H131.713z M130.474,234.143l4.8-11.716l4.8,11.716H130.474z
				 M195.406,225.162v-0.103c0-3.407-1.084-6.245-3.097-8.258c-2.374-2.374-5.936-3.665-10.53-3.665h-16.517v36.13h7.949v-11.562
				h6.246l7.742,11.562h9.291l-8.826-12.904C192.257,234.659,195.406,230.994,195.406,225.162z M187.354,225.575
				c0,3.045-2.22,5.11-6.091,5.11h-8.052V220.31h7.897c3.871,0,6.246,1.755,6.246,5.161V225.575z M235.097,213.136h-29.938v7.329
				h10.994v28.801h7.949v-28.801h10.994V213.136z M254.658,213.136h-7.949v36.13h7.949V213.136z M293.111,213.136v22.246
				l-16.93-22.246h-7.33v36.13h7.846v-22.968l17.498,22.968h6.762v-36.13H293.111z M77.197,277.215h4.552v11.925h3.291v-11.925
				h4.552v-3.035H77.197V277.215z M97.455,274.073l-6.411,15.066h3.355l1.368-3.355h6.326l1.368,3.355h3.441l-6.411-15.066H97.455z
				 M96.942,282.878l1.987-4.851l1.988,4.851H96.942z M123.888,274.18h-3.74l-3.184,4.851l-3.12-4.851h-3.847l5.001,7.351
				l-5.215,7.608h3.74l3.377-5.129l3.355,5.129h3.847l-5.215-7.651L123.888,274.18z M149.487,282.386l-2.415-1.325
				c-0.47,0.919-0.962,1.795-1.453,2.564l-1.987-1.987c1.859-0.727,3.142-1.902,3.142-3.911v-0.043c0-2.094-1.667-3.761-4.21-3.761
				c-2.885,0-4.531,1.881-4.531,3.932v0.043c0,1.026,0.321,1.966,1.047,2.992c-1.881,0.855-2.906,2.201-2.906,4.103v0.043
				c0,2.65,2.159,4.317,5.022,4.317c1.731,0,3.163-0.662,4.381-1.667l1.731,1.752l2.415-1.688l-2.201-2.201
				C148.269,284.545,148.91,283.433,149.487,282.386z M141.045,278.005c0-0.898,0.577-1.517,1.453-1.517
				c0.833,0,1.41,0.534,1.41,1.389v0.043c0,0.94-0.684,1.496-1.987,1.987c-0.62-0.705-0.876-1.197-0.876-1.859V278.005z
				 M141.579,286.66c-1.218,0-2.094-0.705-2.094-1.752v-0.043c0-0.727,0.406-1.453,1.389-1.966l2.864,2.906
				C143.054,286.34,142.327,286.66,141.579,286.66z M167.926,274.073l-6.411,15.066h3.355l1.368-3.355h6.326l1.368,3.355h3.441
				l-6.411-15.066H167.926z M167.413,282.878l1.988-4.851l1.987,4.851H167.413z M187.649,274.18h-5.834v14.959h5.834
				c4.702,0,7.95-3.27,7.95-7.48v-0.043C195.599,277.407,192.351,274.18,187.649,274.18z M192.158,281.703
				c0,2.65-1.817,4.466-4.509,4.466h-2.543v-9.018h2.543c2.693,0,4.509,1.859,4.509,4.509V281.703z M205.961,284.716l-3.911-10.536
				h-3.633l6.048,15.066h2.906l6.048-15.066h-3.548L205.961,284.716z M218.012,289.139h3.291V274.18h-3.291V289.139z
				 M233.248,280.185c-2.586-0.662-3.227-0.983-3.227-1.966v-0.043c0-0.727,0.663-1.304,1.923-1.304c1.261,0,2.565,0.556,3.89,1.475
				l1.71-2.479c-1.517-1.218-3.377-1.902-5.556-1.902c-3.056,0-5.236,1.795-5.236,4.509v0.043c0,2.971,1.945,3.804,4.958,4.573
				c2.5,0.641,3.013,1.069,3.013,1.902v0.043c0,0.876-0.812,1.41-2.159,1.41c-1.71,0-3.12-0.705-4.467-1.816l-1.945,2.329
				c1.795,1.603,4.082,2.393,6.347,2.393c3.227,0,5.492-1.667,5.492-4.637v-0.043C237.993,282.066,236.283,280.976,233.248,280.185z
				 M250.3,273.924c-4.616,0-7.971,3.483-7.971,7.736v0.043c0,4.253,3.313,7.693,7.929,7.693c4.616,0,7.971-3.483,7.971-7.736
				v-0.043C258.229,277.364,254.917,273.924,250.3,273.924z M254.788,281.703c0,2.564-1.838,4.659-4.488,4.659
				s-4.531-2.137-4.531-4.701v-0.043c0-2.564,1.838-4.659,4.488-4.659s4.531,2.137,4.531,4.701V281.703z M275.772,279.159v-0.043
				c0-1.41-0.449-2.586-1.282-3.419c-0.983-0.983-2.458-1.517-4.36-1.517h-6.839v14.959h3.291v-4.787h2.586l3.206,4.787h3.847
				l-3.654-5.343C274.468,283.092,275.772,281.574,275.772,279.159z M272.438,279.33c0,1.261-0.919,2.116-2.522,2.116h-3.334v-4.295
				h3.27c1.603,0,2.586,0.727,2.586,2.137V279.33z M286.22,280.185l-3.569-6.005h-3.847l5.749,9.061v5.898h3.291v-5.962l5.749-8.997
				h-3.74L286.22,280.185z"/>
		</g>
	</g>
</g>
<g id="A_copy_2_1_" style="enable-background:new    ;">
	<g id="A_copy_2">
		<g>
			<path style="fill-rule:evenodd;clip-rule:evenodd;" d="M189.405,153.421l0.063-0.119v-0.007l1.304-2.597l-0.015-55.84
				l26.74-0.163l11.081-21.49H88.433l31.276,21.652h41.599l-32.072,24.575l-38.8-29.731L68.882,73.204v120.299h21.555v-76.648
				l21.211,16.154l17.589,13.577l17.589-13.577l21.211-16.154v76.648l1.164-2.183v2.355L189.405,153.421z M291.85,172.021
				l-50.526-98.817l-50.526,98.817l-11.036,21.482h24.142l11.036-21.482l26.384-51.557l26.384,51.557l11.036,21.482h24.142
				L291.85,172.021z"/>
		</g>
	</g>
</g>
</svg>
